<svg width="25" height="25" viewBox="0 0 25 25" fill="none" xmlns="http://www.w3.org/2000/svg">
<path d="M17.7083 2.0835H7.29167C4.41519 2.0835 2.08334 4.41535 2.08334 7.29183V17.7085C2.08334 20.585 4.41519 22.9168 7.29167 22.9168H17.7083C20.5848 22.9168 22.9167 20.585 22.9167 17.7085V7.29183C22.9167 4.41535 20.5848 2.0835 17.7083 2.0835Z" stroke="black" stroke-width="1.5" stroke-linecap="round" stroke-linejoin="round"/>
<path d="M16.6667 11.8436C16.7952 12.7105 16.6471 13.5959 16.2435 14.3738C15.8399 15.1517 15.2012 15.7825 14.4184 16.1766C13.6355 16.5706 12.7484 16.7077 11.8831 16.5685C11.0178 16.4293 10.2185 16.0207 9.5988 15.401C8.97909 14.7813 8.57056 13.982 8.43133 13.1167C8.29209 12.2514 8.42924 11.3643 8.82326 10.5815C9.21728 9.79863 9.84812 9.15997 10.626 8.75633C11.4039 8.35268 12.2893 8.20461 13.1563 8.33316C14.0406 8.46429 14.8592 8.87635 15.4914 9.50848C16.1235 10.1406 16.5355 10.9593 16.6667 11.8436Z" stroke="black" stroke-width="1.5" stroke-linecap="round" stroke-linejoin="round"/>
<path d="M18.2292 6.771H18.2396" stroke="black" stroke-width="1.5" stroke-linecap="round" stroke-linejoin="round"/>
</svg>
