<svg width="20" height="20" viewBox="0 0 20 20" fill="none" xmlns="http://www.w3.org/2000/svg">
<path d="M11.64 11.8904L17.6208 16.4M3.37041 12.7704L2.66001 12.0904C2.14894 11.602 1.73913 11.0176 1.454 10.3707C1.16887 9.72383 1.014 9.0271 0.998253 8.32034C0.982503 7.61358 1.10618 6.91064 1.36221 6.2517C1.61824 5.59275 2.00161 4.99072 2.49041 4.48L3.17041 3.78C3.65627 3.2683 4.23857 2.85777 4.88376 2.57206C5.52896 2.28636 6.2243 2.13111 6.92974 2.11527C7.63519 2.09944 8.3368 2.22331 8.99417 2.47978C9.65153 2.73624 10.2517 3.12022 10.76 3.6096L11.4704 4.28C12.5004 5.26764 13.0967 6.62347 13.1285 8.05014C13.1603 9.47681 12.625 10.8579 11.64 11.8904L11 12.6C10.5127 13.1163 9.92765 13.5306 9.2789 13.819C8.63016 14.1074 7.9306 14.264 7.22082 14.2799C6.51105 14.2957 5.80519 14.1704 5.14422 13.9113C4.48324 13.6522 3.88031 13.2644 3.37041 12.7704V12.7704V12.7704Z" stroke="black" stroke-width="1.6" stroke-linecap="round" stroke-linejoin="round"/>
<path d="M15.2992 12.46C14.4296 12.3904 13.4296 13.46 13.2992 14.46C13.2607 14.7351 13.2897 15.0154 13.3838 15.2768C13.4778 15.5381 13.6342 15.7726 13.8392 15.96C14.2696 16.46 17.2696 19.96 19.0792 17.36C19.2712 17.0864 19.4072 16.776 19.4792 16.4504C19.5496 16.0486 19.4677 15.6351 19.2496 15.2904C18.825 14.5692 18.2541 13.9448 17.5738 13.4573C16.8935 12.9699 16.1187 12.6302 15.2992 12.46Z" fill="black"/>
</svg>
